<?xml version="1.0" encoding="UTF-8"?><svg id="a" xmlns="http://www.w3.org/2000/svg" viewBox="0 0 307.1 247.6"><path d="M53.4,7.4L0,241.9H115.6L62.1,7.4c-2.9,0-5.8,0-8.7,0Z" style="fill:#15162e;"/><path d="M237.6,7.4l-37.8,219.6L161.8,7.4h-.3l-20.1,234.1c2.2,0,4.3,0,6.5,0l15.8-182.8,31.6,182.9c3,0,6,0,9,0l31.5-183.2,15.9,183.4c2.2,0,4.3,0,6.5,0L237.9,7.4h-.3Z" style="fill:#15162e; stroke:#15162e; stroke-miterlimit:10; stroke-width:7px;"/><g><path d="M266.9,8.6h-8.5v-1.7h19v1.7h-8.5v30.4h-1.9V8.6Z" style="fill:#15162e; stroke:#15172e; stroke-miterlimit:10;"/><path d="M302.3,9.4h0l-9.2,29.7h-1.9l-9.2-29.7h0v29.7h-1.9V6.9h3.1l9.1,28.9h0l8.9-28.9h3.1V39.1h-1.9V9.4Z" style="fill:#15162e; stroke:#15172e; stroke-miterlimit:10;"/></g><path d="M55.5,94.9l-27.7,121.8h60.1l-27.8-121.8c-1.5,0-3,0-4.5,0Z" style="fill:#fff; stroke:#fff; stroke-miterlimit:10; stroke-width:10px;"/></svg>