<?xml version="1.0" encoding="UTF-8"?><svg id="a" xmlns="http://www.w3.org/2000/svg" viewBox="0 0 311 247.1"><path d="M57.8,6.9L4.4,241.4H120L66.5,6.9c-2.9,0-5.8,0-8.7,0Z" style="fill:#15162e; stroke:#15162e; stroke-miterlimit:10; stroke-width:7px;"/><path d="M242,6.9l-37.8,219.6L166.1,6.9h-.3l-20.1,234.1c2.2,0,4.3,0,6.5,0l15.8-182.8,31.6,182.9c3,0,6,0,9,0l31.5-183.2,15.9,183.4c2.2,0,4.3,0,6.5,0L242.3,6.9h-.3Z" style="fill:#15162e; stroke:#15162e; stroke-miterlimit:10; stroke-width:7px;"/><g><path d="M271.3,8.1h-8.5v-1.7h19v1.7h-8.5v30.4h-1.9V8.1Z" style="fill:#15162e;"/><path d="M306.6,8.9h0l-9.2,29.7h-1.9l-9.2-29.7h0v29.7h-1.9V6.4h3.1l9.1,28.9h0l8.9-28.9h3.1V38.6h-1.9V8.9Z" style="fill:#15162e;"/></g><path d="M59.9,91.4l-27.7,121.8h60.1l-27.8-121.8c-1.5,0-3,0-4.5,0Z" style="fill:#fff; stroke:#15162e; stroke-miterlimit:10; stroke-width:10px;"/></svg>