<?xml version="1.0" encoding="utf-8"?>
<!-- Generator: Adobe Illustrator 26.1.0, SVG Export Plug-In . SVG Version: 6.00 Build 0)  -->
<svg version="1.1" id="a" xmlns="http://www.w3.org/2000/svg" xmlns:xlink="http://www.w3.org/1999/xlink" x="0px" y="0px"
	 viewBox="0 0 500 470.3" style="enable-background:new 0 0 500 470.3;" xml:space="preserve">
<style type="text/css">
	.st0{stroke:#000000;stroke-miterlimit:10;}
	.st1{stroke:#000000;stroke-width:6;stroke-miterlimit:10;}
</style>
<g>
	<path class="st0" d="M287.5,277.1l-13.6-36.3c-4.8,8.2-9.5,16.3-14.3,24.5l5.2,14.3l7.9,21.6l0,0l3.6,10l-3.3-9.5l1.9,5.7"/>
	<path class="st0" d="M272.6,301.3l27.5,69.9h26.2l-41-102.3"/>
	<path class="st1" d="M227.1,174.4c3.3-8.7,6.5-17.2,9.9-25.8l-16.9-43.3h-20.7L99,363.9h20.7l25.1-65.8l11.5-29.2l53.5-139.7
		C209.8,129.2,227.1,174.4,227.1,174.4z"/>
	<polygon class="st1" points="152.2,279.7 156.3,268.9 156.3,268.9 	"/>
	<path class="st1" d="M300.8,105.2h-20.7L179.6,363.9h20.7l23.7-62.3l0,0l1.4-3.5l0,0l7.4-18.5l57.7-150.3l57.6,150.4l1.8,5.3
		c2.1,5.5,24.6,63.1,31.2,80.1l19.9-1.2L300.8,105.2z"/>
</g>
<g>
	<path d="M426.1,365.1v-19.8H420v-2.7h14.6v2.7h-6.1v19.8H426.1z"/>
	<path d="M436.7,365.1v-22.5h3.6l4.5,16l0.9,3.4c0-0.9,0.5-2,0.9-3.6l4.5-15.8h3.4v22.5h-2.3v-18.9l-5.4,18.9h-2.3l-5.4-19.1v19.1
		h-2.3H436.7z"/>
</g>
</svg>
